<svg viewBox="0 0 200 200" xmlns="http://www.w3.org/2000/svg">
  <g transform="rotate(-3 100 100)">
    <circle cx="100" cy="100" r="90" fill="none" stroke="#1B2430" stroke-width="7"/>
    <circle cx="100" cy="100" r="68" fill="none" stroke="#1B2430" stroke-width="3"/>
    <line x1="174.00" y1="100.00" x2="184.00" y2="100.00" stroke="#1B2430" stroke-width="2.6" stroke-linecap="round"/>
    <line x1="172.58" y1="114.44" x2="182.39" y2="116.39" stroke="#1B2430" stroke-width="2.6" stroke-linecap="round"/>
    <line x1="168.37" y1="128.32" x2="177.61" y2="132.15" stroke="#1B2430" stroke-width="2.6" stroke-linecap="round"/>
    <line x1="161.53" y1="141.11" x2="169.84" y2="146.67" stroke="#1B2430" stroke-width="2.6" stroke-linecap="round"/>
    <line x1="152.33" y1="152.33" x2="159.40" y2="159.40" stroke="#1B2430" stroke-width="2.6" stroke-linecap="round"/>
    <line x1="141.11" y1="161.53" x2="146.67" y2="169.84" stroke="#1B2430" stroke-width="2.6" stroke-linecap="round"/>
    <line x1="128.32" y1="168.37" x2="132.15" y2="177.61" stroke="#1B2430" stroke-width="2.6" stroke-linecap="round"/>
    <line x1="114.44" y1="172.58" x2="116.39" y2="182.39" stroke="#1B2430" stroke-width="2.6" stroke-linecap="round"/>
    <line x1="100.00" y1="174.00" x2="100.00" y2="184.00" stroke="#1B2430" stroke-width="2.6" stroke-linecap="round"/>
    <line x1="85.56" y1="172.58" x2="83.61" y2="182.39" stroke="#1B2430" stroke-width="2.6" stroke-linecap="round"/>
    <line x1="71.68" y1="168.37" x2="67.85" y2="177.61" stroke="#1B2430" stroke-width="2.6" stroke-linecap="round"/>
    <line x1="58.89" y1="161.53" x2="53.33" y2="169.84" stroke="#1B2430" stroke-width="2.6" stroke-linecap="round"/>
    <line x1="47.67" y1="152.33" x2="40.60" y2="159.40" stroke="#1B2430" stroke-width="2.6" stroke-linecap="round"/>
    <line x1="38.47" y1="141.11" x2="30.16" y2="146.67" stroke="#1B2430" stroke-width="2.6" stroke-linecap="round"/>
    <line x1="31.63" y1="128.32" x2="22.39" y2="132.15" stroke="#1B2430" stroke-width="2.6" stroke-linecap="round"/>
    <line x1="27.42" y1="114.44" x2="17.61" y2="116.39" stroke="#1B2430" stroke-width="2.6" stroke-linecap="round"/>
    <line x1="26.00" y1="100.00" x2="16.00" y2="100.00" stroke="#1B2430" stroke-width="2.6" stroke-linecap="round"/>
    <line x1="27.42" y1="85.56" x2="17.61" y2="83.61" stroke="#1B2430" stroke-width="2.6" stroke-linecap="round"/>
    <line x1="31.63" y1="71.68" x2="22.39" y2="67.85" stroke="#1B2430" stroke-width="2.6" stroke-linecap="round"/>
    <line x1="38.47" y1="58.89" x2="30.16" y2="53.33" stroke="#1B2430" stroke-width="2.6" stroke-linecap="round"/>
    <line x1="47.67" y1="47.67" x2="40.60" y2="40.60" stroke="#1B2430" stroke-width="2.6" stroke-linecap="round"/>
    <line x1="58.89" y1="38.47" x2="53.33" y2="30.16" stroke="#1B2430" stroke-width="2.6" stroke-linecap="round"/>
    <line x1="71.68" y1="31.63" x2="67.85" y2="22.39" stroke="#1B2430" stroke-width="2.6" stroke-linecap="round"/>
    <line x1="85.56" y1="27.42" x2="83.61" y2="17.61" stroke="#1B2430" stroke-width="2.6" stroke-linecap="round"/>
    <line x1="100.00" y1="26.00" x2="100.00" y2="16.00" stroke="#1B2430" stroke-width="2.6" stroke-linecap="round"/>
    <line x1="114.44" y1="27.42" x2="116.39" y2="17.61" stroke="#1B2430" stroke-width="2.6" stroke-linecap="round"/>
    <line x1="128.32" y1="31.63" x2="132.15" y2="22.39" stroke="#1B2430" stroke-width="2.6" stroke-linecap="round"/>
    <line x1="141.11" y1="38.47" x2="146.67" y2="30.16" stroke="#1B2430" stroke-width="2.6" stroke-linecap="round"/>
    <line x1="152.33" y1="47.67" x2="159.40" y2="40.60" stroke="#1B2430" stroke-width="2.6" stroke-linecap="round"/>
    <line x1="161.53" y1="58.89" x2="169.84" y2="53.33" stroke="#1B2430" stroke-width="2.6" stroke-linecap="round"/>
    <line x1="168.37" y1="71.68" x2="177.61" y2="67.85" stroke="#1B2430" stroke-width="2.6" stroke-linecap="round"/>
    <line x1="172.58" y1="85.56" x2="182.39" y2="83.61" stroke="#1B2430" stroke-width="2.6" stroke-linecap="round"/>
    <text x="100" y="100" text-anchor="middle" dominant-baseline="central"
          font-family="Georgia, 'Times New Roman', serif" font-weight="700"
          font-size="72" fill="#1B2430">K</text>
  </g>
</svg>